<svg width="45" height="49" viewBox="0 0 45 49" fill="none" xmlns="http://www.w3.org/2000/svg">
<g clip-path="url(#clip0_277_508)">
<path fill-rule="evenodd" clip-rule="evenodd" d="M14.7435 45.0804C10.536 43.8996 6.13079 43.304 1.85747 42.7584C0.937067 42.644 0.0825308 43.2824 0.0167874 44.1817C-0.1147 45.0818 0.54312 45.9048 1.39778 46.0192C5.53962 46.5445 9.81252 47.1067 13.8229 48.2433C14.6776 48.4898 15.5984 47.9823 15.8613 47.1093C16.1243 46.2368 15.5982 45.3276 14.7435 45.0804Z" fill="black"/>
<path fill-rule="evenodd" clip-rule="evenodd" d="M27.4987 28.3409C20.7271 21.4306 13.101 15.4099 6.46087 8.31422C5.86918 7.65152 4.81728 7.61601 4.15985 8.23467C3.50242 8.85397 3.43693 9.89531 4.09436 10.558C10.7344 17.6741 18.3607 23.7146 25.1323 30.6453C25.7897 31.2922 26.8413 31.3014 27.4987 30.6649C28.0904 30.0292 28.1562 28.9879 27.4987 28.3409Z" fill="black"/>
<path fill-rule="evenodd" clip-rule="evenodd" d="M40.1878 1.76019C40.385 5.7153 40.5818 9.67042 40.7791 13.6262C40.7791 14.5322 41.5684 15.2317 42.4888 15.1876C43.4092 15.1429 44.0662 14.3717 44.0662 13.4652C43.869 9.50344 43.6721 5.5424 43.4749 1.58136C43.4092 0.675414 42.6201 -0.0194939 41.6998 0.0298136C40.845 0.0791212 40.122 0.854896 40.1878 1.76019Z" fill="black"/>
</g>
<defs>
<clipPath id="clip0_277_508">
<rect width="44.9972" height="48.91" fill="white"/>
</clipPath>
</defs>
</svg>
