<svg width="139" height="51" viewBox="0 0 139 51" fill="none" xmlns="http://www.w3.org/2000/svg">
<path d="M3.21351 37.0762C4.6643 38.0218 8.25761 40.9407 11.2438 43.5371C19.1374 50.4594 21.7782 51.5712 23.2308 48.6337C23.9662 47.1018 22.1157 44.0795 18.4649 40.7513C17.5757 39.9585 16.7837 39.1396 16.7534 39.0264C16.723 38.9132 20.1746 39.7469 24.379 40.864C38.0668 44.5337 50.52 45.926 63.4599 45.2465C71.2202 44.864 87.0279 40.5035 94.7504 36.6732C108.294 29.8865 118.611 22.3273 130.618 10.1895C136.441 4.32075 138.777 1.57102 138.726 0.796118C138.614 -0.205191 138.356 -0.19665 136.814 0.459698C135.79 0.916131 132.455 3.6304 129.36 6.46236C116.786 17.8423 102.057 27.0094 86.1023 33.3506C72.2584 38.8224 58.6744 40.4026 41.3607 38.5545C35.4711 37.95 22.9608 35.1778 20.0013 33.8482C18.7689 33.3293 18.8023 33.2597 20.6761 32.0899C23.625 30.2678 24.4545 28.8927 23.9393 26.9683C23.0149 23.5156 17.2193 23.0679 7.98232 25.909C2.63509 27.5249 1.70889 27.9553 0.76708 29.2998C-0.0106875 30.4791 -0.172055 31.4323 0.170233 33.0998C0.539711 35.0633 0.93416 35.5642 3.21351 37.0762Z" fill="#ECFFFC"/>
</svg>
